<svg xmlns="http://www.w3.org/2000/svg" xmlns:xlink="http://www.w3.org/1999/xlink" width="240" height="60" viewBox="0 0 240 60"><defs><clipPath id="b"><rect width="240" height="60"/></clipPath></defs><g id="a" clip-path="url(#b)"><g transform="translate(6 7)"><path d="M10,1.98a8,8,0,1,0,8,8A8.009,8.009,0,0,0,10,1.98Zm0,1.143A6.857,6.857,0,1,1,3.143,9.98,6.849,6.849,0,0,1,10,3.123Z" transform="translate(-2 -1.98)" fill="#838383"/><path d="M15.541,7.967A.549.549,0,0,0,15,8.524V12.37a.549.549,0,0,0,.161.389l2.72,2.719a.55.55,0,1,0,.793-.761l-.016-.016L16.1,12.143V8.524a.549.549,0,0,0-.542-.557Z" transform="translate(-7.477 -4.415)" fill="#838383"/></g><g transform="translate(6 37.397)"><path d="M10,1.98a8,8,0,1,0,8,8A8.009,8.009,0,0,0,10,1.98Zm0,1.143A6.857,6.857,0,1,1,3.143,9.98,6.849,6.849,0,0,1,10,3.123Z" transform="translate(-2 -1.98)" fill="#efac25"/><path d="M15.541,7.967A.549.549,0,0,0,15,8.524V12.37a.549.549,0,0,0,.161.389l2.72,2.719a.55.55,0,1,0,.793-.761l-.016-.016L16.1,12.143V8.524a.549.549,0,0,0-.542-.557Z" transform="translate(-7.477 -4.415)" fill="#efac25"/></g><g transform="translate(-2069.997 -1717.571)"><g transform="translate(2108.997 1724.571)"><path d="M2119.261,1724.571h-8.542a1.724,1.724,0,0,0-1.722,1.722v11.284a1.724,1.724,0,0,0,1.722,1.722h.913v.882a.375.375,0,0,0,.57.32l1.342-.816,1.364.832a.375.375,0,0,0,.57-.32v-.9h3.783a1.724,1.724,0,0,0,1.722-1.722v-11.284A1.724,1.724,0,0,0,2119.261,1724.571Zm-9.514,1.722a.973.973,0,0,1,.972-.973h.417v9.394a.367.367,0,0,0,.032.151h-.544a1.613,1.613,0,0,0-.877.259Zm4.981,13.236-.989-.6a.374.374,0,0,0-.39,0l-.968.589v-2.049h2.346Zm5.5-1.952a.973.973,0,0,1-.972.972h-3.783v-1.084h3.878a1.614,1.614,0,0,0,.877-.259Zm0-1.739a.878.878,0,0,1-.877.877h-8.013a.375.375,0,0,0,0,.75h.289v1.084h-.914a.973.973,0,0,1-.972-.972v-1.085a.878.878,0,0,1,.877-.877h8.732a1.617,1.617,0,0,0,.877-.259Zm0-3.687v1.836a.878.878,0,0,1-.877.878h-7.5a.379.379,0,0,0,.032-.151v-9.394h7.375a.974.974,0,0,1,.972.973Z" transform="translate(-2108.997 -1724.571)" fill="#838383"/></g></g><g transform="translate(-2069.997 -1687.174)"><g transform="translate(2108.997 1724.571)"><path d="M2119.261,1724.571h-8.542a1.724,1.724,0,0,0-1.722,1.722v11.284a1.724,1.724,0,0,0,1.722,1.722h.913v.882a.375.375,0,0,0,.57.32l1.342-.816,1.364.832a.375.375,0,0,0,.57-.32v-.9h3.783a1.724,1.724,0,0,0,1.722-1.722v-11.284A1.724,1.724,0,0,0,2119.261,1724.571Zm-9.514,1.722a.973.973,0,0,1,.972-.973h.417v9.394a.367.367,0,0,0,.032.151h-.544a1.613,1.613,0,0,0-.877.259Zm4.981,13.236-.989-.6a.374.374,0,0,0-.39,0l-.968.589v-2.049h2.346Zm5.5-1.952a.973.973,0,0,1-.972.972h-3.783v-1.084h3.878a1.614,1.614,0,0,0,.877-.259Zm0-1.739a.878.878,0,0,1-.877.877h-8.013a.375.375,0,0,0,0,.75h.289v1.084h-.914a.973.973,0,0,1-.972-.972v-1.085a.878.878,0,0,1,.877-.877h8.732a1.617,1.617,0,0,0,.877-.259Zm0-3.687v1.836a.878.878,0,0,1-.877.878h-7.5a.379.379,0,0,0,.032-.151v-9.394h7.375a.974.974,0,0,1,.972.973Z" transform="translate(-2108.997 -1724.571)" fill="#efac25"/></g></g><g transform="translate(-1963.81 -1455.258)"><g transform="translate(2032.81 1462.258)"><g transform="translate(2.776 0)"><path d="M2156.947,1468.706a3.224,3.224,0,1,1,3.224-3.224A3.227,3.227,0,0,1,2156.947,1468.706Zm0-5.91a2.687,2.687,0,1,0,2.686,2.687A2.69,2.69,0,0,0,2156.947,1462.8Z" transform="translate(-2153.723 -1462.258)" fill="#838383" stroke="#838383" stroke-linecap="round" stroke-width="0.3"/></g><g transform="translate(0 7.478)"><path d="M2134.722,1553.549h-12v-1.791a6,6,0,0,1,12,0Zm-11.462-.537h10.925v-1.254a5.463,5.463,0,1,0-10.925,0Z" transform="translate(-2122.722 -1545.758)" fill="#838383" stroke="#838383" stroke-linecap="round" stroke-width="0.3"/></g></g></g><g transform="translate(-1963.81 -1424.861)"><g transform="translate(2032.81 1462.258)"><g transform="translate(2.776 0)"><path d="M2156.947,1468.706a3.224,3.224,0,1,1,3.224-3.224A3.227,3.227,0,0,1,2156.947,1468.706Zm0-5.91a2.687,2.687,0,1,0,2.686,2.687A2.69,2.69,0,0,0,2156.947,1462.8Z" transform="translate(-2153.723 -1462.258)" fill="#efac25" stroke="#efac25" stroke-linecap="round" stroke-width="0.3"/></g><g transform="translate(0 7.478)"><path d="M2134.722,1553.549h-12v-1.791a6,6,0,0,1,12,0Zm-11.462-.537h10.925v-1.254a5.463,5.463,0,1,0-10.925,0Z" transform="translate(-2122.722 -1545.758)" fill="#efac25" stroke="#efac25" stroke-linecap="round" stroke-width="0.3"/></g></g></g><g transform="translate(-1902.473 -1731.654)"><path d="M2000.973,1749.757h2.793l4.353,4.354a.5.5,0,0,0,.854-.354v-15a.5.5,0,0,0-.854-.353l-4.353,4.353h-2.793a.5.5,0,0,0-.5.5v6A.5.5,0,0,0,2000.973,1749.757Zm.5-6h2.5a.5.5,0,0,0,.354-.146l3.646-3.646v12.586l-3.646-3.646a.5.5,0,0,0-.354-.146h-2.5Z" transform="translate(0 0)" fill="#838383"/><path d="M2038.973,1763.258a.5.5,0,1,0,0,1,3,3,0,1,0,0-6,.5.5,0,1,0,0,1,2,2,0,0,1,0,4Z" transform="translate(-28.5 -15.001)" fill="#838383"/><path d="M2038.973,1759.258a5.5,5.5,0,0,0,0-11,.5.5,0,0,0,0,1,4.5,4.5,0,1,1,0,9,.5.5,0,1,0,0,1Z" transform="translate(-28.5 -7.501)" fill="#838383"/></g><g transform="translate(-1902.473 -1701.257)"><path d="M2000.973,1749.757h2.793l4.353,4.354a.5.5,0,0,0,.854-.354v-15a.5.5,0,0,0-.854-.353l-4.353,4.353h-2.793a.5.5,0,0,0-.5.5v6A.5.5,0,0,0,2000.973,1749.757Zm.5-6h2.5a.5.5,0,0,0,.354-.146l3.646-3.646v12.586l-3.646-3.646a.5.5,0,0,0-.354-.146h-2.5Z" transform="translate(0 0)" fill="#efac25"/><path d="M2038.973,1763.258a.5.5,0,1,0,0,1,3,3,0,1,0,0-6,.5.5,0,1,0,0,1,2,2,0,0,1,0,4Z" transform="translate(-28.5 -15.001)" fill="#efac25"/><path d="M2038.973,1759.258a5.5,5.5,0,0,0,0-11,.5.5,0,0,0,0,1,4.5,4.5,0,1,1,0,9,.5.5,0,1,0,0,1Z" transform="translate(-28.5 -7.501)" fill="#efac25"/></g><g transform="translate(126.949 7)"><path d="M485.629,329.66a.571.571,0,0,0,.533-.606c0-.018,0-.036-.006-.054l-.74-4.967,3.531-3.709a.579.579,0,0,0-.014-.811.565.565,0,0,0-.306-.154l-4.887-.813-2.4-4.547a.563.563,0,0,0-.766-.237.57.57,0,0,0-.237.243l-2.277,4.459-5.018.9a.576.576,0,0,0-.3.972l3.488,3.563-.709,5.113a.573.573,0,0,0,.484.646.562.562,0,0,0,.331-.056l4.435-2.249,4.579,2.255A.56.56,0,0,0,485.629,329.66Z" transform="translate(-472.578 -313.694)" fill="#efac25"/></g><g transform="translate(126.949 37.397)"><path d="M485.629,329.66a.571.571,0,0,0,.533-.606c0-.018,0-.036-.006-.054l-.74-4.967,3.531-3.709a.579.579,0,0,0-.014-.811.565.565,0,0,0-.306-.154l-4.887-.813-2.4-4.547a.563.563,0,0,0-.766-.237.57.57,0,0,0-.237.243l-2.277,4.459-5.018.9a.576.576,0,0,0-.3.972l3.488,3.563-.709,5.113a.573.573,0,0,0,.484.646.562.562,0,0,0,.331-.056l4.435-2.249,4.579,2.255A.56.56,0,0,0,485.629,329.66Zm-.753-1.569-3.864-1.9a.561.561,0,0,0-.5,0l-3.713,1.893.589-4.313a.578.578,0,0,0-.157-.483l-2.923-2.992,4.234-.762a.566.566,0,0,0,.4-.3l1.907-3.741,2.026,3.843a.568.568,0,0,0,.408.292l4.1.686-2.98,3.131a.578.578,0,0,0-.15.483Z" transform="translate(-472.578 -313.694)" fill="#efac25"/></g><path d="M14.775,5.066a4.821,4.821,0,0,0-3.943,2.057A4.839,4.839,0,0,0,6.885,5.066,4.952,4.952,0,0,0,2,10.072c0,6.036,8.313,10.753,8.667,10.95h0a.338.338,0,0,0,.331,0c.354-.2,8.668-4.913,8.668-10.95A4.955,4.955,0,0,0,14.775,5.066Zm-7.89.679a4.193,4.193,0,0,1,3.651,2.181.34.34,0,0,0,.595,0,4.173,4.173,0,0,1,3.644-2.179,4.275,4.275,0,0,1,4.212,4.327c0,5.2-7.044,9.6-8.154,10.261-1.111-.661-8.154-5.06-8.154-10.261A4.272,4.272,0,0,1,6.885,5.745Z" transform="translate(154.306 1.997)" fill="#00a8cc" stroke="#00a8cc" stroke-width="0.5"/><g transform="translate(-990.002 -2424.79)"><path d="M1188.531,2431.791a2.675,2.675,0,0,0-2.667,2.667,2.609,2.609,0,0,0,.111.744l-3.972,2.5a2.668,2.668,0,1,0,.006,4.172l3.967,2.5a2.627,2.627,0,0,0-.111.75,2.673,2.673,0,1,0,.611-1.695l-3.772-2.377a2.65,2.65,0,0,0-.006-2.522c1.249-.8,2.519-1.587,3.778-2.378a2.665,2.665,0,1,0,2.056-4.361Zm0,1.066a1.6,1.6,0,1,1-1.6,1.6A1.592,1.592,0,0,1,1188.531,2432.857Zm-8.178,5.334a1.6,1.6,0,1,1-1.6,1.6A1.592,1.592,0,0,1,1180.353,2438.19Zm8.178,5.333a1.6,1.6,0,1,1-1.6,1.6,1.592,1.592,0,0,1,1.6-1.6Z" transform="translate(0 0)" fill="#00a8cc"/></g><path d="M1357.4,2404.147h-13.077l3.844-3.845a.66.66,0,0,0-.933-.933l-4.981,4.981a.66.66,0,0,0,0,.933l4.96,4.959a.66.66,0,0,0,.933-.933l-3.844-3.844h13.1a.66.66,0,1,0,0-1.32Z" transform="translate(-1125.059 -2390.176)" fill="#00a8cc"/></g></svg>