<svg xmlns="http://www.w3.org/2000/svg" xmlns:xlink="http://www.w3.org/1999/xlink" width="150" height="60" viewBox="0 0 150 60"><defs><clipPath id="b"><rect width="150" height="60"/></clipPath></defs><g id="a" clip-path="url(#b)"><path d="M127.947,199.55a13,13,0,1,0,13,13A13,13,0,0,0,127.947,199.55Zm2.906,7.418a1.606,1.606,0,1,1-1.606,1.606A1.6,1.6,0,0,1,130.853,206.968Zm3.237,10.655H121.8a.9.9,0,0,1-.739-1.427l4.537-6.322a.906.906,0,0,1,1.478,0l2.626,3.671a.31.31,0,0,0,.51,0l.612-.841a.906.906,0,0,1,1.478,0l2.524,3.492A.9.9,0,0,1,134.09,217.623Z" transform="translate(-112.947 -197.55)" fill="#646464"/><path d="M127.947,199.55a13,13,0,1,0,13,13A13,13,0,0,0,127.947,199.55Zm2.906,7.418a1.606,1.606,0,1,1-1.606,1.606A1.6,1.6,0,0,1,130.853,206.968Zm3.237,10.655H121.8a.9.9,0,0,1-.739-1.427l4.537-6.322a.906.906,0,0,1,1.478,0l2.626,3.671a.31.31,0,0,0,.51,0l.612-.841a.906.906,0,0,1,1.478,0l2.524,3.492A.9.9,0,0,1,134.09,217.623Z" transform="translate(-112.947 -167.55)" fill="#00a8cc"/><g transform="translate(36.073 5.077)"><path d="M1093.233,2279l-9.439,7.079a.481.481,0,0,0-.192.384v12.743a.49.49,0,0,0,.472.472h6.371a.491.491,0,0,0,.472-.472v-7.552h5.191v7.552a.491.491,0,0,0,.472.472h6.371a.49.49,0,0,0,.472-.472v-12.743a.484.484,0,0,0-.192-.384l-9.439-7.079A.489.489,0,0,0,1093.233,2279Zm.281.973,8.966,6.725v12.034h-5.427v-7.551a.491.491,0,0,0-.472-.472h-6.135a.491.491,0,0,0-.472.472v7.551h-5.427V2286.7Z" transform="translate(-1083.676 -2278.993)" fill="#646464"/></g><g transform="translate(36.073 35.077)"><path d="M1093.233,2279l-9.439,7.079a.481.481,0,0,0-.192.384v12.743a.49.49,0,0,0,.472.472h6.371a.491.491,0,0,0,.472-.472v-7.552h5.191v7.552a.491.491,0,0,0,.472.472h6.371a.49.49,0,0,0,.472-.472v-12.743a.484.484,0,0,0-.192-.384l-9.439-7.079A.489.489,0,0,0,1093.233,2279Zm.281.973,8.966,6.725v12.034h-5.427v-7.551a.491.491,0,0,0-.472-.472h-6.135a.491.491,0,0,0-.472.472v7.551h-5.427V2286.7Z" transform="translate(-1083.676 -2278.993)" fill="#00a8cc"/></g><g transform="translate(66 6)"><path d="M1725.214,1201.922l-5.093-5.092a7.938,7.938,0,1,0-1.122,1.121l5.093,5.093a.8.8,0,0,0,1.122-1.122Zm-15.755-5.625a6.365,6.365,0,1,1,9,0l0,0a6.326,6.326,0,0,1-8.946.054Z" transform="translate(-1706.022 -1183.852)" fill="#646464"/></g><g transform="translate(66 36)"><path d="M1725.214,1201.922l-5.093-5.092a7.938,7.938,0,1,0-1.122,1.121l5.093,5.093a.8.8,0,0,0,1.122-1.122Zm-15.755-5.625a6.365,6.365,0,1,1,9,0l0,0a6.326,6.326,0,0,1-8.946.054Z" transform="translate(-1706.022 -1183.852)" fill="#00a8cc"/></g><g transform="translate(92 5)"><g transform="translate(0)"><path d="M905.443,2283.247H879.734a.5.5,0,0,0-.494.494v17.8a.494.494,0,0,0,.494.494h25.709a.494.494,0,0,0,.494-.494v-17.8A.494.494,0,0,0,905.443,2283.247Zm-.495,17.8h-24.72v-16.81h24.72Z" transform="translate(-879.239 -2283.247)" fill="#646464"/><path d="M934.737,2403.673H921.882a.494.494,0,1,0,0,.989h12.854a.494.494,0,1,0,0-.989Z" transform="translate(-914.466 -2383.897)" fill="#646464"/><path d="M939.686,2326.222a.5.5,0,0,0,.481.022l5.933-2.967a.495.495,0,0,0,0-.885l-5.933-2.966a.494.494,0,0,0-.715.442v5.933A.5.5,0,0,0,939.686,2326.222Zm.754-5.554,4.333,2.167L940.441,2325Z" transform="translate(-929.564 -2313.441)" fill="#646464"/></g></g><g transform="translate(92 35)"><g transform="translate(0)"><path d="M905.443,2283.247H879.734a.5.5,0,0,0-.494.494v17.8a.494.494,0,0,0,.494.494h25.709a.494.494,0,0,0,.494-.494v-17.8A.494.494,0,0,0,905.443,2283.247Zm-.495,17.8h-24.72v-16.81h24.72Z" transform="translate(-879.239 -2283.247)" fill="#00a8cc"/><path d="M934.737,2403.673H921.882a.494.494,0,1,0,0,.989h12.854a.494.494,0,1,0,0-.989Z" transform="translate(-914.466 -2383.897)" fill="#00a8cc"/><path d="M939.686,2326.222a.5.5,0,0,0,.481.022l5.933-2.967a.495.495,0,0,0,0-.885l-5.933-2.966a.494.494,0,0,0-.715.442v5.933A.5.5,0,0,0,939.686,2326.222Zm.754-5.554,4.333,2.167L940.441,2325Z" transform="translate(-929.564 -2313.441)" fill="#00a8cc"/></g></g><g transform="translate(127 6)"><g transform="translate(0)"><path d="M1329.409,2385.152H1318.85a.536.536,0,0,1-.536-.536V2366.3a.537.537,0,0,1,.536-.536h0l10.559.009a.536.536,0,0,1,0,1.072h0l-10.022-.009v17.238h10.023a.536.536,0,0,1,0,1.073Z" transform="translate(-1318.314 -2365.769)" fill="#646464"/></g><path d="M1354.522,2403.215H1343.9l3.123-3.124a.536.536,0,0,0-.758-.758l-4.047,4.047a.536.536,0,0,0,0,.758l4.03,4.03a.536.536,0,0,0,.758-.758l-3.123-3.123h10.642a.536.536,0,1,0,0-1.072Z" transform="translate(-1338.422 -2394.059)" fill="#646464"/></g><g transform="translate(127 36)"><g transform="translate(0)"><path d="M1329.409,2385.152H1318.85a.536.536,0,0,1-.536-.536V2366.3a.537.537,0,0,1,.536-.536h0l10.559.009a.536.536,0,0,1,0,1.072h0l-10.022-.009v17.238h10.023a.536.536,0,0,1,0,1.073Z" transform="translate(-1318.314 -2365.769)" fill="#00a8cc"/></g><path d="M1354.522,2403.215H1343.9l3.123-3.124a.536.536,0,0,0-.758-.758l-4.047,4.047a.536.536,0,0,0,0,.758l4.03,4.03a.536.536,0,0,0,.758-.758l-3.123-3.123h10.642a.536.536,0,1,0,0-1.072Z" transform="translate(-1338.422 -2394.059)" fill="#00a8cc"/></g></g></svg>